<?xml version="1.0" standalone="no"?>
<!DOCTYPE svg PUBLIC "-//W3C//DTD SVG 20010904//EN"
 "http://www.w3.org/TR/2001/REC-SVG-20010904/DTD/svg10.dtd">
<svg version="1.0" xmlns="http://www.w3.org/2000/svg"
 width="512.000000pt" height="512.000000pt" viewBox="0 0 512.000000 512.000000"
 preserveAspectRatio="xMidYMid meet">

<g transform="translate(0.000000,512.000000) scale(0.100000,-0.100000)"
fill="#000000" stroke="none">
<path d="M1600 4786 c-302 -65 -474 -275 -438 -538 4 -34 10 -63 12 -65 2 -3
26 7 53 20 260 131 616 155 908 60 44 -14 106 -39 139 -55 32 -16 61 -26 65
-23 3 4 6 61 6 128 0 119 -1 124 -34 192 -88 179 -276 282 -531 291 -74 2
-138 -1 -180 -10z"/>
<path d="M2487 4173 l-17 -78 22 -18 c13 -10 52 -44 88 -75 l64 -57 869 -5
869 -5 19 -24 c18 -22 19 -54 19 -1023 l0 -999 -25 -24 -24 -25 -1014 0 -1014
0 -57 -60 -57 -59 3 -83 3 -82 50 -19 c48 -18 91 -19 1160 -14 1009 4 1114 6
1150 21 50 21 90 59 118 111 l22 40 0 1196 0 1196 -30 48 c-17 27 -50 63 -74
80 l-43 30 -1041 3 -1042 2 -18 -77z"/>
<path d="M1563 4156 c-270 -52 -509 -199 -655 -406 -95 -135 -165 -308 -188
-469 -14 -95 -9 -356 8 -373 6 -6 34 -7 74 -3 64 7 65 8 82 46 29 65 73 93
204 126 277 72 418 155 494 290 43 77 93 108 173 108 76 0 134 -34 166 -96 69
-135 227 -231 500 -301 132 -35 188 -70 209 -132 10 -32 13 -34 77 -40 36 -4
68 -5 71 -2 24 25 29 296 7 413 -33 172 -112 345 -219 478 -135 169 -328 291
-550 346 -106 27 -349 35 -453 15z"/>
<path d="M2813 3688 c99 -193 137 -354 137 -572 -1 -72 -7 -164 -14 -205 l-13
-74 37 -37 c113 -113 113 -284 -1 -461 -41 -65 -98 -113 -184 -155 -69 -34
-206 -74 -252 -74 -20 0 -29 -10 -49 -55 -13 -31 -24 -58 -24 -60 0 -3 410 -5
910 -5 l910 0 0 900 0 900 -755 0 -754 0 52 -102z m1200 -115 c29 -33 31 -68
4 -99 l-25 -29 -217 0 -217 0 -25 29 c-27 31 -25 66 4 99 14 15 39 17 238 17
199 0 224 -2 238 -17z m0 -300 c8 -10 19 -30 22 -45 6 -22 1 -33 -23 -58 l-30
-30 -246 0 c-242 0 -245 0 -272 23 -35 31 -38 82 -5 109 21 16 45 18 281 18
232 0 258 -2 273 -17z m0 -300 c8 -10 19 -30 22 -45 6 -22 1 -33 -23 -58 l-30
-30 -325 0 c-313 0 -325 1 -351 21 -33 26 -36 79 -6 109 19 19 33 20 358 20
310 0 340 -1 355 -17z"/>
<path d="M1693 3258 c-105 -155 -295 -260 -613 -340 l-55 -13 1 -140 c0 -145
11 -232 46 -370 108 -434 370 -705 683 -705 308 0 566 261 679 688 33 124 58
325 54 437 l-3 89 -109 29 c-184 47 -372 133 -464 213 -24 20 -65 69 -91 108
-25 39 -54 72 -62 74 -11 2 -34 -23 -66 -70z"/>
<path d="M715 2736 c-71 -32 -123 -133 -106 -207 24 -106 124 -193 279 -244
29 -9 55 -15 57 -13 2 2 -2 28 -10 58 -22 80 -52 253 -60 343 l-7 77 -62 0
c-33 -1 -74 -7 -91 -14z"/>
<path d="M2635 2673 c-8 -90 -38 -263 -60 -343 -8 -30 -12 -56 -10 -58 2 -2
28 4 57 13 157 52 255 137 279 244 10 47 -12 126 -47 163 -39 42 -82 58 -153
58 l-59 0 -7 -77z"/>
<path d="M1430 1580 c0 -61 -28 -118 -73 -151 -22 -16 -46 -29 -54 -29 -17 0
-17 -5 4 -113 16 -84 20 -91 53 -113 54 -36 211 -84 302 -93 123 -11 249 2
363 40 146 48 156 57 177 159 23 115 24 114 -22 134 -55 24 -92 81 -98 151
l-4 54 -37 -18 c-169 -87 -404 -86 -573 0 l-38 19 0 -40z"/>
<path d="M928 1270 c-102 -37 -202 -76 -222 -85 -50 -24 -109 -83 -134 -136
-11 -24 -55 -174 -97 -334 -42 -159 -80 -305 -85 -323 -7 -27 -5 -36 13 -52
20 -19 37 -20 520 -20 471 0 499 1 492 18 -4 9 -35 103 -70 207 -75 223 -126
409 -170 630 -22 110 -37 160 -46 162 -8 0 -98 -30 -201 -67z"/>
<path d="M2365 1328 c-2 -7 -13 -65 -25 -128 -33 -182 -96 -418 -170 -640 -37
-113 -71 -213 -75 -222 -7 -17 20 -18 483 -18 276 0 501 4 515 9 13 5 27 15
29 23 7 18 -158 642 -183 695 -25 52 -87 115 -137 139 -41 19 -412 154 -425
154 -4 0 -9 -6 -12 -12z"/>
<path d="M1370 994 c0 -50 140 -496 194 -617 l25 -57 168 2 167 3 32 77 c48
112 108 297 149 449 19 74 35 137 35 140 0 4 -35 -4 -77 -18 -43 -13 -113 -30
-155 -36 l-78 -11 0 -71 c0 -62 -3 -74 -23 -93 -23 -22 -71 -29 -93 -14 -23
15 -34 53 -34 115 l0 64 -61 7 c-54 6 -184 40 -231 61 -10 4 -18 3 -18 -1z"/>
</g>
</svg>
