<?xml version="1.0" standalone="no"?>
<!DOCTYPE svg PUBLIC "-//W3C//DTD SVG 20010904//EN"
 "http://www.w3.org/TR/2001/REC-SVG-20010904/DTD/svg10.dtd">
<svg version="1.0" xmlns="http://www.w3.org/2000/svg"
 width="940.000000pt" height="476.000000pt" viewBox="0 0 940.000000 476.000000"
 preserveAspectRatio="xMidYMid meet">

<g transform="translate(0.000000,476.000000) scale(0.100000,-0.100000)"
fill="#000000" stroke="none">
<path d="M3437 3339 c-5 -17 -3 -2237 2 -2246 0 -2 12 -3 26 -3 22 0 25 4 25
33 0 17 0 527 1 1132 l1 1100 -25 3 c-18 2 -26 -3 -30 -19z"/>
<path d="M4047 3330 c-84 -22 -170 -88 -207 -160 -64 -126 -33 -312 66 -400
95 -83 249 -103 385 -49 25 10 26 14 22 52 -3 23 -7 43 -8 45 -1 1 -18 -5 -39
-13 -20 -8 -62 -18 -95 -21 -147 -16 -251 77 -251 224 0 105 36 174 112 213
51 26 167 26 226 -1 45 -21 46 -20 55 30 2 14 6 32 8 39 9 34 -187 63 -274 41z"/>
<path d="M5092 3328 c-6 -6 -12 -16 -12 -21 0 -4 -39 -99 -86 -210 -47 -111
-103 -244 -125 -294 -21 -51 -39 -95 -39 -98 0 -3 26 -5 57 -3 l57 3 31 73 30
72 155 -2 155 -3 29 -72 28 -73 54 0 c70 0 70 -2 -4 160 -11 25 -57 137 -102
250 -45 113 -86 210 -91 216 -13 16 -121 18 -137 2z m126 -240 c28 -72 49
-135 46 -140 -7 -11 -203 -8 -210 3 -6 10 95 269 105 269 5 0 31 -59 59 -132z"/>
<path d="M5663 3326 c-97 -31 -138 -85 -131 -178 6 -77 42 -117 142 -154 123
-45 174 -71 186 -94 16 -29 3 -78 -26 -96 -35 -24 -130 -28 -194 -9 -99 29
-97 29 -103 3 -3 -12 -8 -33 -12 -45 -6 -19 -1 -23 52 -39 37 -12 91 -18 153
-18 83 -1 102 2 145 25 55 28 91 73 101 125 19 103 -38 171 -188 223 -54 18
-109 44 -123 56 -50 47 -20 109 60 120 36 6 79 1 175 -21 22 -5 26 -1 38 37 7
23 11 43 10 45 -2 2 -30 10 -63 19 -71 18 -165 19 -222 1z"/>
<path d="M6196 3325 c-48 -17 -83 -42 -110 -79 -16 -21 -21 -42 -21 -92 0 -63
1 -67 40 -103 27 -25 73 -50 137 -75 52 -20 105 -47 117 -60 42 -45 18 -116
-45 -132 -39 -10 -135 3 -192 25 l-50 20 -11 -44 c-6 -24 -11 -46 -11 -48 0
-2 26 -13 58 -23 38 -12 87 -18 147 -19 78 0 97 4 140 26 63 32 95 83 95 154
0 84 -54 146 -161 184 -96 34 -128 51 -145 76 -22 34 -7 75 37 98 39 21 127
16 188 -9 19 -8 35 -13 36 -12 8 12 23 94 17 100 -11 11 -122 28 -176 28 -28
-1 -69 -7 -90 -15z"/>
<path d="M4415 3320 c-3 -5 -3 -134 -1 -287 3 -153 6 -290 6 -306 l0 -27 188
2 187 3 3 43 3 42 -135 0 -136 0 0 270 0 270 -54 0 c-30 0 -57 -4 -61 -10z"/>
<path d="M1235 3195 c-124 -23 -312 -37 -454 -33 l-161 4 0 -979 c0 -875 2
-979 15 -973 37 14 136 36 214 47 255 36 612 -37 759 -157 72 -58 100 -72 179
-89 115 -24 210 6 308 97 74 67 227 124 404 149 124 17 365 7 466 -21 44 -12
90 -24 103 -27 l22 -5 0 991 c0 786 -3 991 -12 991 -7 0 -49 -7 -93 -15 -107
-19 -249 -19 -365 2 -59 10 -154 16 -250 17 -185 1 -283 -17 -411 -73 l-87
-38 -68 33 c-125 60 -200 75 -384 79 -91 2 -174 2 -185 0z m345 -178 c65 -22
132 -55 245 -121 30 -18 30 -18 100 23 99 58 206 97 320 117 118 20 221 16
419 -17 112 -18 149 -21 197 -13 l59 10 0 -783 c0 -431 -2 -783 -4 -783 -3 0
-56 13 -118 29 -191 49 -313 64 -483 59 -126 -4 -163 -9 -228 -31 -108 -35
-117 -45 -117 -125 0 -102 -44 -152 -132 -152 -79 0 -118 49 -118 148 0 48 -4
62 -23 80 -85 80 -341 115 -563 77 -89 -16 -303 -66 -336 -80 -17 -7 -18 34
-18 773 l0 780 94 0 c78 1 242 18 346 36 14 3 84 3 155 1 107 -3 144 -8 205
-28z"/>
<path d="M920 2221 c0 -383 4 -641 9 -641 5 0 58 12 118 27 98 25 125 28 293
28 212 0 252 -8 362 -75 37 -22 69 -40 72 -40 12 0 5 74 -10 103 -31 63 -130
116 -254 136 -111 18 -333 11 -434 -15 l-26 -6 -2 538 -3 539 -35 17 c-19 9
-47 20 -62 23 l-28 7 0 -641z"/>
<path d="M2695 2846 l-50 -12 -3 -547 c-1 -301 -6 -547 -10 -547 -5 0 -55 7
-113 16 -241 37 -527 -12 -585 -101 -19 -29 -37 -103 -30 -122 5 -11 16 -7 50
17 97 66 197 90 375 90 138 0 331 -30 425 -66 14 -6 16 55 16 640 0 511 -3
646 -12 645 -7 -1 -35 -7 -63 -13z"/>
<path d="M1255 2840 c-93 -14 -96 -16 -93 -68 2 -36 7 -46 18 -44 218 50 420
40 546 -27 45 -25 55 -18 45 29 -9 45 -71 85 -166 105 -73 15 -261 18 -350 5z"/>
<path d="M2100 2836 c-80 -17 -133 -38 -177 -72 -26 -20 -33 -32 -33 -60 0
-18 3 -34 6 -34 3 0 37 14 76 31 38 17 99 37 136 44 88 19 291 19 362 1 30 -8
58 -12 62 -10 5 3 8 23 8 44 0 30 -5 42 -22 52 -34 18 -335 21 -418 4z"/>
<path d="M1245 2615 c-33 -7 -66 -14 -72 -14 -9 -1 -13 -18 -13 -52 0 -43 2
-50 18 -45 117 36 282 46 397 25 33 -6 88 -24 122 -39 l63 -29 0 35 c0 48 -33
76 -122 104 -92 30 -298 38 -393 15z"/>
<path d="M2116 2614 c-81 -16 -162 -53 -197 -90 l-24 -26 -3 -340 c-2 -187 0
-344 5 -348 4 -5 33 9 63 29 l55 37 0 286 c0 324 -3 311 85 351 63 29 238 35
347 13 44 -9 83 -16 86 -16 4 0 7 22 7 49 l0 49 -63 11 c-85 15 -276 12 -361
-5z"/>
<path d="M1284 2421 c-28 -5 -67 -14 -87 -20 -35 -12 -37 -15 -37 -57 0 -50 2
-51 72 -29 122 37 287 29 439 -22 44 -14 82 -24 84 -21 3 3 2 19 -1 37 -8 41
-57 74 -139 96 -71 18 -258 27 -331 16z"/>
<path d="M2178 2420 c-64 -11 -68 -15 -68 -67 0 -39 2 -44 18 -38 91 35 293
30 395 -10 15 -6 17 -1 17 38 0 25 -5 49 -12 53 -45 28 -243 42 -350 24z"/>
<path d="M1295 2213 c-16 -2 -54 -8 -82 -14 l-53 -10 0 -45 c0 -24 3 -44 8
-44 4 0 42 7 85 15 155 30 338 14 447 -38 41 -20 53 -22 57 -11 16 42 -42 104
-116 124 -93 25 -251 35 -346 23z"/>
<path d="M2163 2209 c-43 -10 -43 -10 -43 -56 0 -42 1 -45 23 -39 12 4 74 10
137 13 88 4 130 2 178 -11 35 -9 68 -16 73 -16 5 0 9 20 9 45 0 42 -2 45 -37
56 -50 15 -286 21 -340 8z"/>
<path d="M1264 2010 c-93 -17 -104 -24 -104 -70 0 -46 -1 -45 90 -25 76 17
245 19 321 5 30 -6 82 -24 116 -40 l63 -29 0 39 c0 49 -27 72 -119 101 -75 24
-279 34 -367 19z"/>
<path d="M2201 2010 c-90 -13 -91 -14 -91 -61 l0 -42 38 7 c97 17 238 18 305
2 38 -9 72 -16 78 -16 5 0 9 20 9 45 0 42 -1 44 -37 54 -54 15 -227 21 -302
11z"/>
<path d="M4019 2459 c-107 -11 -160 -51 -185 -136 -36 -123 23 -201 190 -250
110 -33 156 -70 156 -128 0 -43 -30 -71 -91 -84 -56 -12 -144 -2 -208 25 -45
19 -48 18 -55 -13 -3 -16 -8 -38 -12 -49 -10 -36 74 -59 216 -59 109 0 118 2
168 29 69 39 102 92 102 166 0 101 -55 157 -201 205 -93 31 -140 61 -153 97
-30 86 93 134 233 92 30 -8 57 -12 61 -7 12 13 30 75 25 83 -14 22 -155 39
-246 29z"/>
<path d="M4672 2460 c-162 -24 -279 -154 -290 -321 -10 -175 80 -314 237 -364
79 -26 199 -24 271 4 83 32 84 32 76 84 l-7 44 -62 -25 c-78 -32 -179 -36
-249 -9 -156 60 -199 305 -76 426 55 53 93 66 198 66 73 0 104 -5 133 -19 21
-10 39 -17 40 -15 2 2 8 24 14 49 14 53 13 54 -79 75 -71 16 -121 17 -206 5z"/>
<path d="M5074 2435 c-3 -13 -4 -167 -2 -342 l3 -318 63 -3 63 -3 -3 148 -3
148 182 3 182 2 3 -147 3 -148 55 0 55 0 3 338 c1 222 -1 337 -8 338 -5 1 -19
1 -30 1 -11 0 -33 0 -50 -1 l-30 -1 0 -145 0 -145 -177 2 -178 3 -3 143 c-1
78 -6 142 -10 142 -4 1 -31 3 -59 5 -49 4 -53 2 -59 -20z"/>
<path d="M5878 2452 l-28 -3 0 -324 c0 -178 3 -330 6 -339 5 -14 35 -16 230
-16 l224 0 0 50 0 50 -170 0 -171 0 3 98 3 97 145 1 145 1 3 47 c2 25 -1 46
-5 46 -4 0 -71 2 -148 3 l-140 2 -3 98 -3 97 171 0 171 0 -3 47 -3 46 -200 1
c-110 1 -212 0 -227 -2z"/>
<path d="M6444 2451 c-6 -6 -5 -249 3 -478 l6 -203 131 0 c158 0 227 10 299
45 119 56 178 147 185 282 9 176 -76 295 -241 337 -57 14 -371 28 -383 17z
m363 -113 c99 -36 146 -109 147 -228 0 -106 -35 -169 -119 -213 -32 -17 -62
-22 -157 -25 l-118 -4 0 247 0 248 103 -5 c56 -3 121 -12 144 -20z"/>
<path d="M7183 2208 c4 -281 9 -307 67 -367 56 -57 101 -74 211 -79 89 -4 102
-2 158 24 39 17 75 43 97 68 57 67 65 111 62 371 l-3 229 -50 1 -50 0 -5 -240
c-5 -230 -6 -242 -29 -282 -30 -53 -84 -78 -166 -78 -72 0 -120 24 -150 75
-18 32 -20 57 -25 280 l-5 245 -58 3 -59 3 5 -253z"/>
<path d="M7973 2452 l-23 -3 0 -340 0 -339 220 0 220 0 0 50 0 50 -160 0 -160
0 0 83 c0 46 -3 179 -7 295 l-6 211 -31 -1 c-17 -1 -41 -4 -53 -6z"/>
<path d="M8497 2454 c-9 -9 -9 -219 0 -481 l6 -203 229 0 228 0 0 50 0 50
-172 2 -173 3 -3 93 c-2 70 0 92 10 92 7 1 79 1 161 0 l147 -1 0 56 0 55 -160
0 -161 0 3 93 3 92 170 5 170 5 0 44 0 45 -226 3 c-124 2 -228 0 -232 -3z"/>
<path d="M4428 1541 c-106 -22 -181 -116 -182 -226 0 -166 153 -273 325 -225
151 42 206 268 93 384 -57 58 -150 85 -236 67z m151 -89 c43 -32 66 -81 65
-142 0 -104 -54 -160 -155 -160 -66 0 -112 26 -140 80 -41 75 -10 192 60 230
45 25 132 21 170 -8z"/>
<path d="M3840 1315 l1 -225 40 0 39 0 0 70 0 70 83 0 c103 0 142 18 175 81
43 82 17 163 -68 207 -38 19 -60 22 -157 22 l-114 0 1 -225z m237 148 c25 -10
45 -63 38 -99 -9 -49 -42 -67 -123 -68 l-67 -1 -3 79 c-4 111 -5 110 75 101
37 -4 73 -9 80 -12z"/>
<path d="M4807 1533 c-3 -5 -5 -107 -5 -226 l2 -217 44 0 44 0 -4 73 -3 72 46
3 46 3 51 -81 c51 -80 53 -81 90 -79 20 1 40 4 44 6 4 2 -17 39 -47 83 l-56
79 28 13 c97 47 96 208 -2 258 -34 17 -269 28 -278 13z m253 -83 c26 -26 27
-89 1 -121 -17 -22 -27 -24 -98 -24 l-78 0 -3 83 -3 82 81 0 c67 0 83 -3 100
-20z"/>
<path d="M5200 1510 c0 -36 21 -44 98 -36 l52 4 0 -194 0 -194 40 0 40 0 0
190 c0 145 3 190 13 191 6 1 41 2 77 2 l65 2 3 33 3 32 -195 0 -196 0 0 -30z"/>
<path d="M5726 1508 c-80 -193 -159 -386 -163 -399 -3 -12 3 -18 26 -21 40 -6
46 -1 66 50 l17 42 107 0 106 0 24 -45 c22 -41 27 -45 62 -45 22 0 39 2 39 4
0 3 -26 65 -59 138 -32 73 -74 172 -92 220 l-34 87 -43 1 c-39 0 -44 -3 -56
-32z m97 -159 c20 -51 34 -96 31 -100 -6 -11 -141 -12 -147 -1 -5 9 64 192 73
192 4 0 23 -41 43 -91z"/>
<path d="M6079 1536 c-2 -2 -3 -104 -1 -225 l3 -221 149 0 150 0 0 30 0 30
-109 0 -109 0 -7 113 c-4 62 -5 143 -2 181 3 38 3 75 0 83 -5 12 -64 19 -74 9z"/>
</g>
</svg>
