<?xml version="1.0" standalone="no"?>
<!DOCTYPE svg PUBLIC "-//W3C//DTD SVG 20010904//EN"
 "http://www.w3.org/TR/2001/REC-SVG-20010904/DTD/svg10.dtd">
<svg version="1.0" xmlns="http://www.w3.org/2000/svg"
 width="512.000000pt" height="512.000000pt" viewBox="0 0 512.000000 512.000000"
 preserveAspectRatio="xMidYMid meet">

<g transform="translate(0.000000,512.000000) scale(0.100000,-0.100000)"
fill="#000000" stroke="none">
<path d="M3440 5020 c0 -116 -13 -156 -68 -213 -74 -77 -22 -71 -762 -78 -742
-6 -702 -2 -860 -80 -121 -59 -240 -179 -298 -299 -73 -149 -75 -162 -79 -560
l-3 -355 149 153 149 152 788 0 c878 0 857 -1 988 68 92 48 180 136 228 228
67 127 68 137 68 636 l0 448 -150 0 -150 0 0 -100z"/>
<path d="M3695 3624 c-22 -19 -85 -57 -140 -84 -183 -89 -119 -84 -992 -87
l-772 -4 -193 -201 c-142 -147 -192 -206 -190 -222 4 -39 54 -180 84 -241 117
-234 324 -440 551 -549 324 -156 706 -156 1030 -1 282 134 513 396 611 690 51
155 57 205 63 478 3 145 2 257 -3 257 -5 -1 -27 -17 -49 -36z"/>
<path d="M3949 2803 c-16 -50 -91 -207 -123 -260 l-26 -42 102 -49 c115 -56
242 -134 345 -211 l68 -52 3 43 c8 108 -48 282 -127 395 -50 71 -144 163 -199
196 l-30 17 -13 -37z"/>
<path d="M1094 2792 c-167 -132 -283 -351 -284 -534 0 -32 2 -58 5 -58 2 0 35
23 72 51 87 65 267 172 362 216 71 33 73 34 58 56 -37 57 -81 143 -112 219
-19 45 -38 84 -43 86 -5 1 -31 -15 -58 -36z"/>
<path d="M1420 2226 c-41 -18 -90 -40 -107 -50 l-33 -17 0 -1079 0 -1080 165
0 165 0 0 1088 0 1087 -49 43 c-28 23 -53 42 -58 42 -4 0 -42 -15 -83 -34z"/>
<path d="M3567 2223 l-37 -39 0 -1092 0 -1092 165 0 165 0 0 1076 0 1075 -103
49 c-145 68 -145 68 -190 23z"/>
<path d="M1910 982 l0 -982 660 0 660 0 0 982 c0 825 -2 980 -13 968 -8 -8
-150 -195 -317 -415 -167 -220 -312 -410 -323 -422 l-19 -22 -310 422 c-171
232 -317 429 -324 437 -12 12 -14 -132 -14 -968z"/>
<path d="M835 1818 c-302 -307 -482 -687 -524 -1107 -6 -57 -11 -240 -11 -407
l0 -304 340 0 340 0 0 975 c0 536 -3 975 -7 975 -5 0 -67 -59 -138 -132z"/>
<path d="M4160 973 l0 -973 330 0 330 0 0 305 c0 168 -5 349 -11 403 -46 431
-220 798 -520 1106 l-128 131 -1 -972z"/>
<path d="M2404 1805 c12 -16 53 -72 91 -123 37 -51 71 -90 75 -85 13 15 166
218 172 228 4 7 -58 10 -177 10 l-184 0 23 -30z"/>
</g>
</svg>
